<svg width="20" height="20" viewBox="0 0 20 20" fill="none" xmlns="http://www.w3.org/2000/svg">
<path d="M17.071 -6.10352e-05L2.93036 -6.10352e-05C1.31506 -6.10352e-05 0.000671387 1.31433 0.000671387 2.92963L0.000671387 17.0703C0.000671387 18.6856 1.31506 19.9999 2.93036 19.9999L8.8288 19.9999L8.8288 12.9296H6.48505V9.414H8.8288V7.03119C8.8288 5.09256 10.4058 3.51556 12.3444 3.51556L15.8991 3.51556L15.8991 7.03119L12.3444 7.03119V9.414H15.8991L15.3132 12.9296H12.3444L12.3444 19.9999H17.071C18.6863 19.9999 20.0007 18.6856 20.0007 17.0703L20.0007 2.92963C20.0007 1.31433 18.6863 -6.10352e-05 17.071 -6.10352e-05Z" 
fill="black"/>
</svg>
